<svg id="logo" class="logo no-select" version="1.1" viewBox="0 0 400 554.4715447154472" xmlns="http://www.w3.org/2000/svg" xmlns:xlink="http://www.w3.org/1999/xlink" ><g id="svgg"><path id="logo_path" class="logo-path" d="M20.732 172.696 C 20.732 257.842,20.610 327.629,20.461 327.777 C 20.312 327.926,18.838 327.306,17.185 326.399 C 14.143 324.729,12.045 324.615,11.146 326.069 C 11.010 326.289,11.301 341.138,11.793 359.068 L 12.686 391.667 13.965 393.022 C 17.238 396.490,25.705 401.204,33.494 403.894 C 37.620 405.320,38.004 405.545,39.183 407.240 C 54.348 429.038,75.058 444.610,107.114 458.318 C 138.705 471.828,164.812 491.520,185.068 517.121 C 188.678 521.683,193.910 529.357,194.683 531.223 C 195.739 533.771,197.059 533.103,199.827 528.618 C 217.479 500.024,249.474 473.950,286.179 458.247 C 317.126 445.008,339.587 428.150,353.567 407.669 C 354.769 405.907,355.044 405.739,357.812 405.072 C 367.294 402.789,378.008 397.634,383.936 392.503 L 385.554 391.102 386.228 365.571 C 386.599 351.529,387.020 336.709,387.164 332.637 L 387.425 325.234 385.770 324.389 L 384.115 323.545 382.911 324.402 C 380.975 325.780,373.941 328.932,373.327 328.697 C 372.849 328.513,372.764 305.025,372.764 173.183 L 372.764 17.886 359.358 17.886 L 345.953 17.886 345.842 25.711 L 345.732 33.537 339.533 33.649 L 333.333 33.761 333.333 25.824 L 333.333 17.886 319.521 17.886 L 305.709 17.886 305.598 25.711 L 305.488 33.537 299.289 33.649 L 293.089 33.761 293.089 25.824 L 293.089 17.886 279.272 17.886 L 265.454 17.886 265.349 39.126 L 265.244 60.366 255.191 60.475 L 245.139 60.583 245.029 68.605 L 244.919 76.626 238.415 76.626 L 231.911 76.626 231.800 68.598 L 231.690 60.569 217.886 60.569 L 204.082 60.569 203.972 68.598 L 203.862 76.626 197.358 76.626 L 190.854 76.626 190.743 68.598 L 190.633 60.569 176.626 60.569 L 162.619 60.569 162.509 68.598 L 162.398 76.626 156.098 76.626 L 149.797 76.626 149.687 68.604 L 149.576 60.583 139.117 60.474 L 128.659 60.366 128.553 39.126 L 128.448 17.886 114.843 17.886 L 101.237 17.886 101.127 25.711 L 101.016 33.537 94.715 33.537 L 88.415 33.537 88.304 25.711 L 88.194 17.886 74.593 17.886 L 60.993 17.886 60.883 25.711 L 60.772 33.537 54.472 33.537 L 48.171 33.537 48.060 25.711 L 47.950 17.886 34.341 17.886 L 20.732 17.886 20.732 172.696 M41.057 33.136 L 41.057 40.662 54.370 40.554 L 67.683 40.447 67.683 33.028 L 67.683 25.609 74.492 25.609 L 81.301 25.610 81.301 33.130 L 81.301 40.650 94.465 40.650 L 107.629 40.650 107.874 39.736 C 108.009 39.233,108.121 35.849,108.125 32.215 L 108.130 25.610 114.837 25.610 L 121.545 25.610 121.545 143.360 C 121.545 208.123,121.619 261.035,121.709 260.942 C 121.800 260.849,121.978 260.132,122.104 259.350 C 122.773 255.225,124.249 249.561,126.041 244.241 L 128.049 238.279 128.049 153.570 C 128.049 88.228,128.160 68.750,128.537 68.374 C 129.219 67.691,141.512 67.691,142.195 68.374 C 142.539 68.718,142.683 71.055,142.683 76.292 L 142.683 83.722 156.098 83.685 L 169.512 83.647 169.512 76.223 C 169.512 67.091,168.830 67.834,177.087 67.977 L 183.537 68.089 183.647 75.924 L 183.757 83.758 197.354 83.729 L 210.951 83.700 210.921 76.160 C 210.905 72.014,211.049 68.464,211.241 68.271 C 211.649 67.863,223.732 67.683,224.368 68.075 C 224.644 68.246,224.797 71.064,224.797 76.005 L 224.797 83.670 238.415 83.695 L 252.033 83.720 252.033 76.030 C 252.033 71.096,252.186 68.246,252.460 68.077 C 253.071 67.699,265.170 67.853,265.560 68.243 C 265.739 68.422,265.925 84.823,265.971 104.689 L 266.057 140.808 268.902 141.307 C 272.619 141.958,272.812 141.961,272.734 141.362 C 272.698 141.082,272.690 114.924,272.716 83.232 L 272.764 25.610 279.268 25.610 L 285.772 25.610 285.772 32.487 C 285.772 36.270,285.883 39.654,286.019 40.007 C 286.237 40.575,287.801 40.650,299.434 40.650 L 312.602 40.650 312.602 33.130 L 312.602 25.610 319.512 25.610 L 326.423 25.610 326.423 33.130 L 326.423 40.650 339.634 40.650 L 352.846 40.650 352.846 33.130 L 352.846 25.610 359.350 25.610 L 365.854 25.610 365.854 178.406 C 365.854 307.410,365.767 331.273,365.296 331.664 C 364.173 332.596,353.930 334.463,345.015 335.361 C 342.608 335.603,333.919 335.870,325.706 335.955 C 305.465 336.164,296.233 337.261,278.862 341.522 C 267.796 344.236,250.752 350.016,242.750 353.767 C 239.280 355.394,216.088 353.386,198.735 349.957 C 196.658 349.547,196.173 349.603,193.348 350.578 C 180.875 354.883,171.222 355.124,155.867 351.516 L 151.829 350.567 145.732 353.655 C 137.732 357.705,134.405 358.717,128.220 358.980 C 121.719 359.256,116.260 363.230,116.260 367.685 L 116.260 368.666 118.306 367.394 C 120.902 365.780,124.486 365.319,125.117 366.518 C 125.361 366.982,125.543 375.808,125.586 389.260 C 125.667 414.524,125.950 412.734,122.049 411.654 C 119.862 411.048,113.505 409.643,110.772 409.161 C 96.939 406.725,93.947 406.462,75.813 406.090 C 66.646 405.902,58.506 405.651,57.724 405.531 C 56.941 405.411,54.746 405.109,52.846 404.859 C 47.133 404.109,35.092 401.299,33.954 400.451 C 33.724 400.280,32.622 399.807,31.504 399.400 C 26.704 397.654,18.403 392.694,16.644 390.522 C 15.583 389.212,14.359 329.675,15.393 329.675 C 15.586 329.675,17.004 330.292,18.543 331.047 C 20.082 331.802,22.988 332.974,25.000 333.651 C 37.243 337.770,46.935 339.350,61.789 339.646 C 86.407 340.137,90.978 340.257,92.683 340.462 C 98.327 341.138,104.429 341.926,105.527 342.121 C 106.654 342.320,106.856 342.195,107.458 340.927 C 108.203 339.358,108.278 338.985,107.825 339.105 C 107.658 339.150,106.057 338.965,104.268 338.696 C 96.836 337.576,86.811 336.996,74.797 336.990 C 63.695 336.984,53.563 336.572,48.984 335.938 C 40.839 334.812,30.127 332.463,28.557 331.460 L 27.642 330.876 27.642 178.243 L 27.642 25.610 34.350 25.610 L 41.057 25.610 41.057 33.136 M72.340 81.002 C 70.654 82.620,67.521 85.589,65.379 87.602 C 61.130 91.593,59.399 94.174,58.153 98.374 C 57.167 101.701,57.231 99.041,57.278 134.248 L 57.317 164.228 75.825 164.228 L 94.332 164.228 94.219 131.809 L 94.106 99.390 92.886 96.643 C 91.059 92.526,89.044 90.120,82.129 83.797 C 74.728 77.030,76.080 77.416,72.340 81.002 M321.069 79.378 C 320.283 80.100,317.553 82.596,315.003 84.925 C 308.374 90.978,306.455 93.492,305.045 97.967 C 304.869 98.526,304.630 99.258,304.516 99.593 C 304.401 99.929,304.248 114.609,304.176 132.215 L 304.046 164.228 322.551 164.228 L 341.057 164.228 341.054 132.622 C 341.050 92.102,341.959 95.661,328.455 83.332 C 322.008 77.445,322.744 77.840,321.069 79.378 M79.458 85.361 C 88.755 93.952,90.143 95.801,91.278 101.110 C 92.022 104.589,92.128 160.378,91.392 161.264 C 91.051 161.675,87.635 161.789,75.560 161.789 L 60.163 161.789 60.112 133.232 C 60.047 96.467,59.851 99.026,63.102 94.209 C 65.327 90.911,75.546 81.970,76.365 82.603 C 76.732 82.887,78.124 84.128,79.458 85.361 M327.350 86.275 C 339.390 97.259,338.657 94.222,338.519 132.525 L 338.415 161.585 323.374 161.699 C 315.102 161.761,307.967 161.723,307.520 161.615 C 306.370 161.336,306.627 101.005,307.791 98.116 C 308.555 96.218,310.052 93.811,311.454 92.225 C 312.621 90.906,322.296 82.114,322.581 82.114 C 322.695 82.114,324.841 83.986,327.350 86.275 M73.014 92.317 C 69.954 95.536,69.975 95.265,72.537 98.476 C 75.270 101.901,76.665 101.842,79.637 98.179 L 81.775 95.545 79.006 92.488 C 75.675 88.811,76.329 88.829,73.014 92.317 M319.906 92.358 C 318.460 93.968,317.322 95.431,317.378 95.609 C 317.433 95.787,318.332 97.031,319.374 98.373 C 322.425 102.302,323.567 102.021,327.998 96.252 C 328.470 95.637,328.203 95.184,325.784 92.492 C 322.471 88.805,323.086 88.819,319.906 92.358 M66.789 102.063 C 64.141 105.629,64.228 104.614,64.228 132.174 L 64.228 157.317 68.496 157.317 L 72.764 157.317 72.764 131.691 C 72.764 103.017,72.972 105.136,69.800 101.453 L 68.426 99.858 66.789 102.063 M81.714 102.024 C 78.804 105.500,78.862 104.883,78.862 132.585 L 78.862 157.317 83.345 157.317 L 87.828 157.317 87.715 131.606 C 87.589 103.021,87.771 104.893,84.786 101.512 L 83.429 99.976 81.714 102.024 M328.705 101.799 C 325.658 105.518,325.826 103.826,325.697 132.012 L 325.581 157.317 330.067 157.317 L 334.553 157.317 334.553 131.990 L 334.553 106.664 333.526 104.653 C 332.961 103.547,331.982 102.041,331.351 101.307 L 330.202 99.972 328.705 101.799 M313.871 101.835 C 311.007 105.097,311.191 103.142,311.066 131.620 L 310.952 157.345 315.334 157.229 L 319.715 157.114 319.715 131.707 L 319.715 106.301 318.820 104.627 C 316.560 100.403,315.603 99.862,313.871 101.835 M197.615 135.671 C 193.951 142.518,199.234 147.760,213.821 151.753 C 225.658 154.993,229.599 157.102,235.862 163.545 L 238.593 166.356 240.740 164.938 C 244.311 162.581,246.121 161.821,254.180 159.292 C 264.681 155.999,265.300 155.565,266.822 150.440 L 267.451 148.323 265.534 148.499 C 260.746 148.940,258.150 148.153,255.572 145.479 C 253.487 143.317,246.340 138.211,245.398 138.211 C 245.202 138.211,244.465 137.948,243.761 137.627 C 236.227 134.189,221.805 134.402,214.546 138.059 C 212.091 139.295,207.360 138.852,203.455 137.019 C 198.898 134.880,198.133 134.704,197.615 135.671 M188.535 151.130 C 184.616 155.179,183.564 158.163,182.930 167.030 C 182.265 176.335,181.246 179.575,177.610 183.943 L 175.918 185.976 181.150 186.430 C 196.415 187.754,206.582 195.134,209.576 207.063 C 209.725 207.654,210.009 208.238,210.208 208.361 C 210.406 208.484,210.572 208.985,210.575 209.475 C 210.591 211.667,211.225 211.616,213.824 209.209 C 218.611 204.777,222.871 203.426,230.849 203.811 C 237.672 204.140,240.244 202.710,240.244 198.588 C 240.244 196.017,236.816 188.759,236.282 190.200 C 235.857 191.348,233.136 193.986,231.536 194.803 C 227.798 196.710,220.732 194.718,220.732 191.757 C 220.732 191.072,220.551 191.131,219.301 192.228 C 218.515 192.919,217.372 193.589,216.761 193.718 C 216.150 193.846,215.329 194.015,214.936 194.093 C 209.070 195.255,201.171 187.209,203.560 182.505 L 204.274 181.098 202.320 181.055 C 193.238 180.860,190.705 158.491,199.638 157.375 L 201.730 157.114 198.072 155.398 C 195.212 154.056,193.975 153.194,192.403 151.446 L 190.393 149.211 188.535 151.130 M270.662 156.427 C 269.918 157.279,268.639 158.477,267.820 159.091 C 265.154 161.086,266.168 164.250,270.391 167.118 L 272.694 168.682 272.745 161.780 C 272.800 154.241,272.729 154.060,270.662 156.427 M225.542 168.963 C 228.635 173.279,223.246 178.199,219.259 174.699 L 217.759 173.381 218.056 175.004 C 219.380 182.236,230.081 181.531,230.081 174.211 C 230.081 171.027,228.628 169.014,225.669 168.100 L 224.712 167.805 225.542 168.963 M253.609 172.246 C 253.083 172.367,252.991 172.762,253.153 174.202 C 253.536 177.600,249.424 180.447,246.794 178.605 C 246.000 178.048,245.789 178.032,245.490 178.503 C 243.680 181.361,249.739 184.491,253.659 182.723 C 257.783 180.864,257.737 171.298,253.609 172.246 M266.413 175.327 C 266.287 183.621,262.035 191.446,256.241 194.045 C 254.655 194.756,254.505 194.979,253.469 198.164 C 252.867 200.016,251.869 202.136,251.252 202.875 L 250.131 204.218 253.216 206.224 C 259.178 210.101,264.567 216.596,265.676 221.244 C 266.533 224.833,267.170 221.488,267.246 213.008 C 267.329 203.699,269.755 199.110,276.366 195.761 C 277.515 195.178,278.462 194.568,278.471 194.404 C 278.720 189.571,280.583 185.355,283.431 183.183 C 284.706 182.211,289.431 180.271,289.431 180.720 C 289.431 181.594,293.725 178.528,294.738 176.932 C 296.340 174.406,295.933 174.204,289.870 174.513 C 285.092 174.757,283.537 175.130,279.624 176.974 C 278.422 177.540,276.982 178.087,276.423 178.190 C 275.864 178.293,274.944 178.495,274.379 178.641 C 273.613 178.837,272.931 178.600,271.697 177.706 C 270.309 176.700,269.410 175.727,266.687 172.278 C 266.564 172.122,266.441 173.494,266.413 175.327 M300.353 179.112 C 296.803 186.323,298.642 190.354,309.350 198.836 C 315.633 203.814,319.064 207.636,321.733 212.631 L 323.074 215.142 323.624 213.567 C 325.798 207.343,323.177 201.290,314.494 192.485 C 309.214 187.131,305.659 182.677,303.638 178.884 C 302.008 175.827,301.969 175.830,300.353 179.112 M244.715 187.259 C 244.380 187.371,243.850 187.545,243.537 187.644 C 243.093 187.786,243.154 188.025,243.814 188.730 C 245.120 190.124,245.548 191.696,245.571 195.177 C 245.594 198.723,245.837 198.986,247.300 197.053 C 250.591 192.702,248.796 185.899,244.715 187.259 M289.634 188.277 C 286.035 190.255,283.745 194.345,282.322 201.333 C 282.160 202.131,281.462 202.866,279.943 203.838 C 275.438 206.720,273.603 210.823,273.297 218.699 C 273.025 225.713,273.345 226.534,276.943 228.068 C 285.171 231.579,291.976 238.299,295.446 246.341 C 298.342 253.054,298.095 265.451,294.869 275.203 C 291.528 285.304,283.766 296.366,275.733 302.475 C 274.435 303.461,273.313 304.405,273.238 304.573 C 273.164 304.741,272.944 304.878,272.751 304.878 C 272.557 304.878,271.612 305.408,270.650 306.055 C 269.689 306.702,266.159 308.647,262.805 310.377 C 254.950 314.428,254.210 314.847,251.016 317.056 C 244.986 321.226,238.851 327.000,234.146 332.933 C 230.286 337.800,227.235 340.809,224.677 342.270 L 222.667 343.417 225.866 343.762 C 229.572 344.160,244.119 344.229,244.498 343.850 C 244.638 343.709,244.351 342.821,243.858 341.877 C 241.081 336.548,245.509 329.154,255.285 322.799 C 259.527 320.041,262.077 318.757,269.412 315.687 C 290.842 306.716,305.968 284.905,306.124 262.749 C 306.157 258.135,306.743 254.275,307.994 250.442 C 309.305 246.428,308.867 245.039,304.749 240.142 C 303.292 238.410,302.951 238.211,301.439 238.211 C 296.819 238.211,293.086 232.945,295.305 229.559 C 295.873 228.693,295.846 228.660,294.595 228.698 C 290.918 228.808,286.663 222.128,287.776 217.995 C 288.228 216.317,290.609 213.821,291.759 213.821 C 292.495 213.821,292.413 213.540,291.222 211.978 C 288.954 209.005,292.476 202.711,297.309 201.100 C 297.557 201.018,296.906 200.001,295.864 198.841 C 294.049 196.823,292.717 194.029,291.425 189.533 C 290.885 187.653,290.833 187.617,289.634 188.277 M172.967 193.915 C 163.743 194.981,154.961 201.230,148.502 211.322 C 146.318 214.737,140.244 227.243,140.244 228.328 C 140.244 228.537,139.772 229.886,139.196 231.325 C 135.258 241.167,132.364 254.367,131.868 264.758 C 131.663 269.042,131.394 270.488,129.887 275.407 C 126.099 287.768,124.882 294.098,122.970 311.382 C 122.611 314.624,122.241 317.551,122.149 317.886 C 122.056 318.222,121.880 319.088,121.758 319.811 C 120.684 326.156,115.680 342.599,112.632 349.797 C 111.209 353.159,111.235 353.203,114.865 353.489 C 123.256 354.150,136.406 348.812,142.934 342.094 C 148.109 336.769,154.508 325.598,157.348 316.930 C 158.443 313.587,158.801 312.985,160.892 310.976 C 170.005 302.217,180.275 286.392,181.890 278.621 C 181.979 278.195,182.337 276.657,182.687 275.203 C 183.036 273.750,183.324 271.913,183.327 271.121 C 183.332 269.948,183.679 269.346,185.202 267.869 C 194.601 258.756,198.575 249.780,202.294 229.268 C 204.088 219.374,203.062 209.887,199.620 204.562 C 194.973 197.373,183.321 192.717,172.967 193.915 M70.635 214.332 C 66.094 218.711,64.842 220.171,63.928 222.154 L 62.805 224.593 62.688 249.154 C 62.595 268.838,62.675 273.780,63.095 274.046 C 63.382 274.228,69.694 274.381,77.121 274.384 L 90.625 274.390 90.644 251.225 C 90.665 225.083,90.596 224.313,87.894 220.271 C 86.716 218.510,76.955 208.933,76.351 208.946 C 76.279 208.947,73.707 211.371,70.635 214.332 M195.630 214.441 C 195.255 226.242,190.599 238.864,181.223 253.506 C 179.917 255.545,178.419 258.472,177.894 260.010 C 170.107 282.813,154.058 310.895,140.392 325.633 C 138.410 327.770,134.294 332.252,131.244 335.593 C 124.762 342.694,124.151 343.282,123.816 342.740 C 123.679 342.519,125.243 340.093,127.290 337.348 C 131.323 331.941,132.387 329.949,132.782 327.069 C 133.023 325.307,133.108 325.203,134.303 325.201 C 139.596 325.192,145.324 318.182,145.073 312.023 L 144.973 309.575 146.369 309.292 C 153.282 307.888,165.631 281.031,163.364 272.330 C 162.650 269.589,162.679 269.512,164.419 269.512 C 171.950 269.512,186.201 243.216,183.144 234.959 C 182.771 233.953,182.374 232.843,182.262 232.492 C 182.112 232.024,182.515 231.716,183.763 231.342 C 185.948 230.687,189.207 227.650,190.533 225.034 C 191.918 222.300,194.715 213.683,194.715 212.149 C 194.715 211.332,194.889 210.969,195.224 211.086 C 195.584 211.212,195.702 212.189,195.630 214.441 M241.778 212.091 C 241.168 212.469,240.256 213.559,239.749 214.513 C 238.611 216.659,238.156 216.846,236.482 215.859 C 231.768 213.077,222.477 213.411,218.391 216.509 C 214.662 219.336,213.268 222.188,210.560 232.520 C 207.752 243.237,203.070 257.673,200.028 264.995 C 199.342 266.647,198.780 268.172,198.780 268.384 C 198.780 268.597,198.232 269.957,197.561 271.406 C 196.890 272.855,196.341 274.129,196.341 274.238 C 196.341 274.346,195.995 275.202,195.571 276.140 C 195.147 277.078,194.511 278.542,194.159 279.393 C 191.861 284.943,186.214 296.222,183.062 301.558 C 182.093 303.197,181.301 304.610,181.301 304.698 C 181.301 305.427,169.555 323.617,164.253 331.098 C 162.668 333.333,160.927 335.803,160.384 336.585 C 159.841 337.368,158.488 339.221,157.378 340.704 L 155.359 343.400 156.324 343.839 C 165.326 347.941,182.232 345.666,191.099 339.159 L 193.409 337.464 193.382 334.484 C 193.297 324.904,200.066 314.316,214.240 301.858 C 239.965 279.245,255.113 254.243,256.371 232.317 C 257.129 219.113,248.883 207.685,241.778 212.091 M81.313 216.224 C 89.002 223.350,88.607 221.527,88.613 249.898 L 88.618 272.358 76.626 272.358 C 67.310 272.358,64.631 272.244,64.622 271.850 C 64.615 271.570,64.621 261.011,64.634 248.385 L 64.658 225.428 65.684 223.181 C 66.875 220.576,75.294 212.095,76.499 212.288 C 76.876 212.349,79.042 214.120,81.313 216.224 M168.548 213.457 C 168.046 215.971,159.355 235.063,158.462 235.615 C 157.672 236.103,157.736 235.410,158.749 232.479 C 161.705 223.931,161.889 223.137,161.708 219.689 L 161.535 216.388 163.373 215.896 C 164.608 215.566,165.682 214.888,166.650 213.827 C 168.409 211.900,168.878 211.808,168.548 213.457 M310.387 215.752 C 312.389 219.590,307.768 223.131,304.573 220.208 C 303.457 219.186,303.339 219.867,304.253 222.054 C 305.808 225.777,312.118 225.472,313.392 221.613 C 314.104 219.457,313.649 217.245,312.196 215.792 C 310.616 214.212,309.572 214.189,310.387 215.752 M74.237 219.749 L 72.255 221.931 73.812 223.973 C 76.201 227.106,78.123 226.670,80.664 222.420 C 80.962 221.920,77.058 217.398,76.437 217.524 C 76.317 217.548,75.327 218.549,74.237 219.749 M175.472 223.882 C 174.772 231.768,169.381 245.485,162.782 256.173 C 157.208 265.199,155.375 266.821,158.571 259.898 C 163.636 248.929,164.588 245.244,163.306 241.580 C 162.607 239.583,162.482 239.784,165.279 238.415 C 167.580 237.289,169.650 235.098,171.040 232.317 C 172.282 229.831,174.797 222.904,174.797 221.969 C 174.797 221.512,175.003 221.138,175.256 221.138 C 175.576 221.138,175.642 221.970,175.472 223.882 M244.528 224.846 C 245.406 227.612,242.842 241.603,240.330 247.764 C 238.361 252.590,233.447 262.190,231.663 264.697 C 231.240 265.290,230.894 265.902,230.894 266.057 C 230.894 266.211,230.534 266.844,230.093 267.464 C 229.652 268.083,228.261 270.672,227.002 273.217 C 222.475 282.369,218.714 287.030,208.966 295.569 C 201.335 302.254,201.068 301.783,207.912 293.713 C 212.307 288.532,213.455 286.432,213.724 283.084 C 213.932 280.496,213.937 280.488,215.198 280.479 C 220.274 280.443,225.326 274.648,229.436 264.148 C 233.609 253.489,234.027 251.263,232.696 246.782 C 232.345 245.601,232.117 244.584,232.188 244.522 C 232.259 244.460,233.084 244.022,234.022 243.549 C 238.253 241.416,242.473 233.461,243.378 225.915 C 243.624 223.858,244.080 223.435,244.528 224.846 M69.840 226.861 C 67.595 229.866,67.691 228.900,67.563 249.712 L 67.443 269.139 70.815 269.021 L 74.187 268.902 74.293 250.262 C 74.407 230.061,74.357 229.493,72.232 227.035 L 70.880 225.470 69.840 226.861 M80.942 227.175 C 78.856 229.809,78.862 229.745,78.862 250.026 L 78.862 269.106 82.114 269.106 L 85.366 269.106 85.366 249.470 L 85.366 229.834 84.186 227.974 C 82.574 225.431,82.364 225.380,80.942 227.175 M314.438 236.167 C 314.285 236.414,313.185 237.167,311.993 237.840 C 309.856 239.045,309.833 239.079,310.389 240.151 C 311.310 241.926,311.465 244.338,310.847 247.247 L 310.266 249.982 311.481 249.117 C 313.317 247.809,314.208 245.450,314.219 241.867 C 314.224 240.189,314.407 238.189,314.627 237.423 C 315.035 236.001,314.938 235.359,314.438 236.167 M266.260 237.157 C 266.260 239.015,263.782 249.014,262.271 253.252 C 260.010 259.592,259.730 260.260,257.431 264.796 C 252.833 273.866,249.193 278.608,235.409 293.482 C 230.090 299.222,224.021 306.348,222.240 308.943 C 219.059 313.580,215.500 319.442,212.071 325.693 C 209.770 329.886,204.878 339.317,204.878 339.559 C 204.878 339.849,210.060 338.367,213.273 337.157 C 222.441 333.707,231.193 327.144,238.196 318.470 C 239.784 316.504,243.209 314.322,256.051 307.100 C 256.859 306.646,258.252 305.818,259.146 305.262 C 260.041 304.705,261.307 303.980,261.960 303.649 C 264.074 302.581,271.107 295.431,273.918 291.492 C 275.758 288.915,277.183 287.364,278.266 286.761 C 285.895 282.512,290.484 272.879,290.940 260.155 C 291.382 247.850,287.779 241.992,277.687 238.611 C 274.151 237.426,266.260 236.422,266.260 237.157 M224.797 240.261 C 224.797 247.200,220.697 257.311,213.594 267.886 C 206.320 278.718,205.239 279.176,209.994 269.411 L 213.211 262.805 213.211 258.672 L 213.211 254.539 214.670 254.102 C 217.659 253.207,221.387 247.764,223.398 241.362 C 224.203 238.800,224.797 238.332,224.797 240.261 M153.837 242.236 C 154.215 242.847,152.881 249.020,151.568 252.742 C 149.010 259.990,145.025 267.494,137.529 279.182 C 135.854 281.793,135.081 281.644,136.402 278.965 C 142.168 267.271,143.262 263.183,141.675 259.274 C 141.456 258.735,141.838 258.398,143.459 257.701 C 147.074 256.146,150.413 251.111,152.273 244.411 C 152.948 241.981,153.341 241.434,153.837 242.236 M276.224 252.960 C 276.134 253.232,275.702 254.644,275.263 256.098 C 273.406 262.251,268.431 274.797,267.848 274.797 C 267.255 274.797,267.398 273.953,268.927 268.435 C 270.163 263.976,270.357 262.708,270.249 259.773 L 270.122 256.335 271.481 255.943 C 272.279 255.714,273.441 254.832,274.295 253.811 C 275.636 252.208,276.615 251.776,276.224 252.960 M285.134 258.435 C 284.186 266.323,283.033 269.965,279.997 274.654 C 276.190 280.534,266.667 290.927,266.667 289.201 C 266.667 288.788,267.569 287.262,270.257 283.130 C 273.939 277.470,275.379 274.278,275.466 271.586 C 275.535 269.425,275.559 269.384,277.097 268.863 C 280.093 267.849,281.909 264.820,283.839 257.622 C 285.069 253.036,285.733 253.453,285.134 258.435 M147.561 277.801 C 147.561 286.600,142.422 298.588,133.166 311.382 C 128.944 317.217,128.608 316.551,132.086 309.243 C 135.758 301.530,136.349 299.662,136.022 296.793 C 135.507 292.273,135.453 292.559,136.904 292.134 C 140.624 291.047,145.019 284.194,146.525 277.134 C 146.897 275.392,147.561 275.820,147.561 277.801 M264.413 279.321 C 261.323 285.462,252.819 296.485,245.948 303.252 C 239.662 309.445,225.523 321.138,224.322 321.138 C 223.585 321.138,224.134 320.481,230.145 314.176 C 240.286 303.540,241.812 301.035,242.380 294.106 C 242.476 292.926,242.551 292.884,244.698 292.789 C 250.453 292.534,255.524 288.827,262.195 279.998 C 265.073 276.188,266.154 275.858,264.413 279.321 M114.024 302.311 C 105.467 310.077,101.645 312.804,94.217 316.447 L 88.638 319.184 89.225 320.321 C 91.394 324.514,99.460 326.753,108.671 325.718 L 111.448 325.407 113.082 320.528 C 114.524 316.224,114.753 315.005,115.036 310.163 C 115.212 307.144,115.453 304.400,115.570 304.065 C 116.701 300.833,116.235 300.304,114.024 302.311 M195.694 311.077 C 195.327 311.804,194.625 312.947,194.135 313.618 C 190.565 318.503,188.496 323.181,186.785 330.239 C 185.155 336.961,184.550 337.964,184.560 333.923 C 184.575 328.279,186.136 320.390,188.497 314.024 C 189.232 312.043,189.299 311.986,191.165 311.771 C 192.217 311.649,193.584 311.156,194.202 310.675 C 195.922 309.337,196.496 309.491,195.694 311.077 M383.144 336.280 C 383.021 340.137,382.637 353.536,382.290 366.056 C 381.569 392.131,382.145 389.158,377.169 392.496 C 364.721 400.848,351.129 403.922,324.187 404.480 C 301.404 404.952,290.734 406.322,272.459 411.123 L 268.699 412.111 268.699 389.800 L 268.699 367.489 269.582 367.586 C 270.306 367.665,270.573 367.343,271.060 365.804 C 271.995 362.852,271.499 361.336,268.677 358.514 C 267.348 357.185,266.260 355.826,266.260 355.494 C 266.260 354.644,263.587 352.974,260.996 352.204 C 259.390 351.727,258.961 351.455,259.384 351.180 C 261.169 350.021,279.533 344.827,288.008 343.085 C 301.372 340.337,306.851 339.827,327.236 339.431 C 353.939 338.913,365.895 336.944,379.255 330.865 C 381.163 329.997,382.869 329.283,383.046 329.278 C 383.223 329.273,383.267 332.424,383.144 336.280 M375.943 347.984 C 374.837 348.629,363.561 351.236,360.735 351.500 C 358.165 351.740,358.132 351.759,357.729 353.209 C 357.088 355.515,357.238 355.847,358.332 354.547 C 359.267 353.436,363.388 352.033,365.716 352.033 C 366.204 352.033,366.274 354.037,366.175 365.080 L 366.057 378.127 364.866 379.076 L 363.674 380.026 367.305 379.236 C 370.551 378.529,374.291 377.291,371.665 377.792 C 369.355 378.233,369.320 378.039,369.186 364.090 L 369.063 351.284 372.108 350.607 C 375.499 349.853,376.507 349.997,377.150 351.330 C 377.518 352.093,377.592 351.867,377.615 349.898 C 377.643 347.481,377.360 347.157,375.943 347.984 M28.814 350.318 C 29.555 351.702,29.434 378.084,28.679 379.891 C 28.355 380.666,28.218 381.303,28.374 381.305 C 28.531 381.308,29.530 381.574,30.594 381.897 L 32.530 382.484 32.042 381.588 C 31.189 380.021,31.044 366.405,31.870 365.492 C 32.469 364.830,32.475 364.696,31.921 364.236 C 31.418 363.819,31.301 362.624,31.301 357.927 C 31.301 351.232,31.498 350.769,34.022 351.544 C 34.830 351.792,35.325 351.834,35.123 351.639 C 34.921 351.443,33.619 350.990,32.229 350.634 C 30.838 350.277,29.399 349.869,29.031 349.727 C 28.462 349.509,28.429 349.598,28.814 350.318 M37.805 352.424 C 38.140 352.649,38.706 352.836,39.063 352.839 C 39.420 352.843,40.039 353.207,40.438 353.649 C 41.200 354.491,41.870 354.404,41.870 353.464 C 41.870 352.936,41.132 352.670,38.415 352.218 C 37.507 352.067,37.351 352.120,37.805 352.424 M349.187 353.776 C 346.451 354.148,346.269 354.225,347.412 354.533 C 349.123 354.995,349.147 355.165,348.914 365.355 C 348.608 378.763,346.599 382.927,340.433 382.927 C 334.949 382.927,333.119 378.940,333.157 367.073 C 333.187 357.618,333.318 356.762,334.863 355.914 C 336.078 355.247,331.714 355.377,328.455 356.105 L 327.033 356.422 328.330 356.463 C 330.173 356.521,330.170 356.502,330.107 365.788 C 330.027 377.533,330.921 380.926,334.665 383.080 C 339.979 386.138,346.216 384.094,349.159 378.330 L 350.553 375.599 350.887 365.618 C 351.229 355.383,351.420 354.287,352.974 353.661 C 354.153 353.186,353.341 353.211,349.187 353.776 M59.076 355.303 C 49.994 357.098,46.327 368.663,51.424 379.436 C 57.182 391.607,75.472 390.779,79.034 378.185 C 82.878 364.600,72.460 352.656,59.076 355.303 M67.792 356.931 C 77.951 361.342,79.800 381.458,70.465 386.024 C 65.972 388.222,60.882 387.032,57.184 382.919 C 49.806 374.712,51.107 357.626,59.211 356.299 C 60.070 356.158,61.047 355.980,61.382 355.903 C 62.577 355.627,66.085 356.190,67.792 356.931 M84.163 359.683 C 85.921 361.724,88.718 366.604,92.591 374.390 L 94.512 378.252 94.473 383.842 C 94.439 388.629,94.328 389.549,93.699 390.245 C 92.988 391.030,92.989 391.057,93.738 391.061 C 94.164 391.064,95.174 391.175,95.983 391.309 L 97.454 391.552 97.099 389.374 C 96.333 384.669,96.983 378.636,98.559 375.819 C 101.049 371.366,105.511 364.858,106.842 363.738 C 108.409 362.419,108.416 362.354,107.012 362.071 C 106.397 361.947,105.620 361.740,105.285 361.611 C 104.822 361.433,104.668 361.696,104.646 362.700 C 104.620 363.856,102.283 368.180,97.258 376.368 C 96.761 377.178,96.582 377.242,96.124 376.775 C 95.086 375.715,87.398 360.204,87.398 359.170 C 87.398 358.364,87.193 358.129,86.484 358.126 C 85.981 358.123,84.847 358.002,83.965 357.856 L 82.361 357.591 84.163 359.683 M308.914 358.279 C 298.162 361.179,292.808 377.070,300.078 384.506 C 304.716 389.250,315.009 388.896,320.212 383.814 C 331.451 372.834,323.296 354.402,308.914 358.279 M317.193 360.829 C 324.565 366.010,323.010 382.456,314.833 385.774 C 306.030 389.347,298.715 381.749,300.337 370.717 C 301.705 361.409,310.596 356.193,317.193 360.829 M215.041 359.751 C 221.091 360.254,230.081 363.444,230.081 365.087 C 230.081 365.502,222.864 365.895,213.686 365.981 L 205.625 366.057 205.065 364.431 C 204.757 363.537,203.783 362.128,202.900 361.301 L 201.295 359.798 203.188 359.647 C 207.023 359.342,210.480 359.372,215.041 359.751 M161.168 361.921 C 162.503 362.540,163.876 363.299,164.218 363.609 C 164.559 363.918,165.388 364.474,166.058 364.844 C 167.530 365.657,161.665 365.482,152.033 364.425 C 143.171 363.454,143.051 363.379,147.399 361.552 C 150.902 360.080,157.583 360.259,161.168 361.921 M293.699 361.187 C 291.835 361.779,279.246 364.238,276.247 364.597 C 274.073 364.858,274.026 364.923,273.435 368.496 L 273.166 370.122 273.950 368.677 C 274.382 367.882,275.206 367.017,275.781 366.755 C 276.931 366.231,281.797 365.041,282.788 365.041 C 283.848 365.041,283.435 390.229,282.356 391.421 C 281.930 391.892,281.305 392.276,280.967 392.276 C 280.629 392.276,280.448 392.372,280.566 392.490 C 280.683 392.607,282.863 392.287,285.410 391.778 C 289.460 390.970,289.837 390.828,288.417 390.650 C 286.265 390.381,286.285 390.518,286.227 376.162 L 286.179 364.316 287.093 364.093 C 291.504 363.021,294.411 363.410,295.119 365.169 C 295.380 365.816,295.484 365.314,295.503 363.313 C 295.517 361.804,295.483 360.592,295.427 360.620 C 295.371 360.649,294.593 360.904,293.699 361.187 M194.512 365.233 L 196.138 366.235 194.207 366.247 C 193.145 366.254,192.276 366.092,192.276 365.887 C 192.276 365.682,192.165 365.224,192.030 364.871 C 191.670 363.932,192.627 364.072,194.512 365.233 M264.523 396.630 L 264.431 429.033 263.072 429.948 C 248.410 439.829,145.324 439.770,130.219 429.873 L 129.263 429.246 129.367 400.118 L 129.472 370.990 131.428 369.585 C 132.890 368.535,133.500 368.297,133.846 368.643 C 134.586 369.383,135.537 369.188,137.251 367.946 L 138.851 366.787 141.908 367.311 C 149.802 368.663,162.223 369.719,175.552 370.171 L 183.828 370.451 184.596 371.709 C 185.018 372.401,185.363 373.288,185.364 373.679 C 185.367 374.992,187.448 373.939,190.161 371.250 C 191.506 369.917,199.919 369.838,201.227 371.145 C 202.037 371.956,202.059 371.956,203.157 371.186 C 204.164 370.480,205.322 370.383,215.447 370.160 C 221.596 370.025,229.861 369.648,233.814 369.322 C 243.002 368.566,245.597 369.181,250.174 373.200 L 251.536 374.395 252.235 372.665 C 252.620 371.714,252.919 370.093,252.899 369.063 L 252.863 367.191 257.224 366.067 C 259.623 365.448,261.860 364.787,262.195 364.597 C 262.530 364.408,263.212 364.247,263.710 364.240 L 264.614 364.228 264.523 396.630 M178.765 365.726 C 178.376 365.828,177.645 365.832,177.139 365.735 C 176.633 365.637,176.951 365.554,177.846 365.550 C 178.740 365.545,179.154 365.625,178.765 365.726 M38.313 366.335 C 38.928 366.555,39.431 366.883,39.431 367.064 C 39.431 367.245,39.705 367.498,40.041 367.627 C 40.472 367.792,40.650 367.592,40.650 366.944 C 40.650 366.143,40.431 366.021,38.923 365.981 C 37.325 365.940,37.279 365.966,38.313 366.335 M242.712 384.592 C 241.341 385.140,229.007 386.206,222.179 386.367 C 215.842 386.516,216.236 386.306,215.658 389.837 L 215.359 391.667 216.740 390.086 L 218.121 388.506 222.719 388.127 C 225.247 387.919,227.585 387.852,227.913 387.978 C 228.425 388.174,228.491 390.309,228.381 403.167 C 228.241 419.454,228.116 420.316,225.905 420.331 C 225.307 420.336,225.171 420.446,225.504 420.658 C 225.781 420.834,227.245 420.841,228.756 420.672 C 230.268 420.504,232.545 420.358,233.817 420.346 C 235.090 420.335,236.244 420.142,236.382 419.919 C 236.533 419.674,235.996 419.512,235.033 419.512 C 232.265 419.512,232.331 419.894,232.192 403.132 C 232.124 394.862,232.224 387.939,232.415 387.748 C 232.606 387.557,234.710 387.282,237.092 387.136 C 241.950 386.839,243.212 387.252,243.794 389.334 C 244.148 390.598,244.650 386.824,244.363 385.061 C 244.198 384.048,244.126 384.027,242.712 384.592 M155.123 385.319 C 157.404 386.380,157.317 385.720,157.317 402.047 C 157.317 418.230,156.946 420.432,154.475 418.905 C 154.250 418.765,154.065 418.845,154.065 419.082 C 154.065 419.318,154.842 419.516,155.793 419.520 C 156.743 419.524,159.350 419.783,161.585 420.095 C 173.255 421.724,173.394 421.689,173.493 417.105 C 173.541 414.847,173.540 414.843,173.032 416.210 C 172.115 418.678,170.980 419.240,167.453 418.971 C 161.308 418.502,161.176 418.297,161.287 409.376 C 161.385 401.509,161.100 401.980,165.447 402.499 C 169.567 402.990,170.732 403.606,170.732 405.294 C 170.732 405.960,170.915 406.504,171.138 406.504 C 171.362 406.504,171.545 405.612,171.545 404.522 C 171.545 403.432,171.663 401.948,171.808 401.224 C 172.065 399.939,172.048 399.920,171.103 400.425 C 170.146 400.938,163.619 401.044,162.093 400.572 C 160.942 400.216,161.012 386.992,162.166 386.992 C 167.231 386.992,171.026 388.363,171.421 390.336 C 171.752 391.991,172.204 390.924,172.416 387.989 C 172.550 386.125,172.496 385.985,171.687 386.096 C 170.843 386.212,157.780 385.164,154.878 384.747 L 153.455 384.543 155.123 385.319 M193.699 387.354 C 190.654 388.759,189.431 390.823,189.431 394.555 C 189.431 398.306,190.510 399.819,197.903 406.435 C 202.612 410.650,203.804 414.056,201.781 417.512 C 198.636 422.883,189.024 420.898,189.024 414.878 C 189.024 414.297,188.841 413.821,188.618 413.821 C 188.379 413.821,188.211 415.240,188.211 417.266 L 188.211 420.711 189.533 421.405 C 193.479 423.479,200.971 422.195,203.385 419.031 C 208.156 412.776,206.463 407.419,197.374 399.999 C 192.364 395.910,191.171 393.258,192.970 390.212 C 194.861 387.010,202.077 387.046,203.687 390.264 C 203.849 390.588,204.171 391.311,204.403 391.870 C 204.750 392.710,204.828 392.385,204.851 389.990 L 204.878 387.093 203.608 386.839 C 200.881 386.294,195.376 386.580,193.699 387.354 M343.496 408.092 C 343.496 408.686,336.021 417.002,332.398 420.438 C 319.481 432.688,304.427 442.212,284.632 450.659 C 272.356 455.897,259.603 462.375,253.789 466.325 C 252.854 466.960,251.993 467.480,251.875 467.480 C 251.462 467.480,239.270 476.080,235.609 478.954 C 221.178 490.283,207.625 504.285,197.353 518.481 L 196.534 519.612 193.001 514.954 C 181.720 500.084,169.144 487.691,153.862 476.383 C 150.285 473.736,146.900 471.231,146.341 470.816 C 139.160 465.483,123.574 457.191,109.084 450.994 C 83.675 440.128,61.080 424.201,50.844 409.942 L 49.452 408.004 51.047 408.257 C 56.505 409.122,61.990 409.422,74.797 409.552 C 93.692 409.745,104.306 410.971,119.553 414.721 L 124.748 415.999 124.874 423.421 L 125.000 430.843 126.174 432.067 C 137.619 444.003,247.119 445.107,265.551 433.471 C 268.417 431.662,268.696 430.760,268.698 423.287 C 268.699 417.423,268.778 416.654,269.411 416.323 C 271.323 415.321,287.934 411.538,294.715 410.559 C 304.681 409.120,308.425 408.875,325.113 408.567 C 334.789 408.389,342.823 408.126,342.965 407.983 C 343.325 407.624,343.496 407.659,343.496 408.092 " stroke="none" fill-rule="evenodd"></path></g></svg>
